# xmcd
# 
# Track frame offsets:
#     187
#     29170
#     54495
#     75002
#     91065
#     108900
#     128095
#     147512
#     165952
# 
# Disc length: 2473
# 
# Revision: 2
# Processed by: cddbd v1.5.2PL0 Copyright (c) Steve Scherf et al.
# Submitted via: BonkEnc v1.0.8
# 
DISCID=6509a709
DTITLE=Quincy Jones - The Dude
DYEAR=1981
DGENRE=Fusion
TTITLE0=Ai No Corrida
TTITLE1=The Dude
TTITLE2=Just Once
TTITLE3=Betcha' Wouldn't Hurt Me
TTITLE4=Somethin' Special
TTITLE5=Razzamatazz
TTITLE6=One Hundred Ways
TTITLE7=Velas
TTITLE8=Turn On The Action
EXTD=
EXTT0=
EXTT1=
EXTT2=
EXTT3=
EXTT4=
EXTT5=
EXTT6=
EXTT7=
EXTT8=
PLAYORDER=
